<?xml version="1.0" encoding="UTF-8"?>
<svg width="179px" height="165px" viewBox="0 0 179 165" version="1.1" xmlns="http://www.w3.org/2000/svg" xmlns:xlink="http://www.w3.org/1999/xlink">
    <title>glueup-symbol</title>
    <g id="Web" stroke="none" stroke-width="1" fill="none" fill-rule="evenodd">
        <g id="glueup-symbol" fill-rule="nonzero">
            <path d="M88.8341051,0 C67.2033786,0 49.6682102,17.6034856 49.6682102,39.3184856 C49.6682102,41.5347165 49.8509262,43.7287828 50.2116395,45.8857125 L50.2803294,46.2784948 L50.3279408,46.5306707 C50.6915997,48.647727 50.8769259,50.8162075 50.8769259,53.0086181 L50.8739508,53.4872879 C50.6797466,69.1049655 40.9944866,82.8516861 26.7089372,88.3841031 L26.4378718,88.4860482 C10.7480544,93.8957437 0,108.758229 0,125.681514 C0,147.396514 17.5351684,165 39.1658949,165 C60.7966214,165 78.3317898,147.396514 78.3317898,125.681514 C78.3317898,123.190434 78.100942,120.728121 77.6460679,118.316177 C77.2997541,116.249929 77.1230741,114.132041 77.1230741,111.991382 C77.1230741,96.0944686 86.9610411,82.0544804 101.528733,76.5250708 C117.225269,71.1396199 128,56.2628218 128,39.3184856 C128,17.6034856 110.464832,0 88.8341051,0 Z" id="Path" fill="#001C6C"></path>
            <path d="M140,86 C118.460895,86 101,103.460895 101,125 C101,146.539105 118.460895,164 140,164 C161.539105,164 179,146.539105 179,125 C179,103.460895 161.539105,86 140,86 Z" id="Path" fill="#0D62FE"></path>
        </g>
    </g>
</svg>